<?xml version="1.0" standalone="no"?>
<!DOCTYPE svg PUBLIC "-//W3C//DTD SVG 1.1//EN" "http://www.w3.org/Graphics/SVG/1.1/DTD/svg11.dtd" >
<svg xmlns="http://www.w3.org/2000/svg">
<metadata></metadata>
<defs>
<font id="roissynormal" horiz-adv-x="1114" >
<font-face units-per-em="2048" ascent="1638" descent="-410" />
<missing-glyph horiz-adv-x="577" />
<glyph horiz-adv-x="2048" />
<glyph horiz-adv-x="2048" />
<glyph unicode="&#xd;" horiz-adv-x="0" />
<glyph unicode=" "  horiz-adv-x="577" />
<glyph unicode="&#x09;" horiz-adv-x="577" />
<glyph unicode="&#xa0;" horiz-adv-x="577" />
<glyph unicode="!" horiz-adv-x="815" d="M332 1368h225l-25 -987h-168zM344 0v213h213v-213h-213z" />
<glyph unicode="&#x22;" horiz-adv-x="684" d="M86 1474h205l-33 -544h-139zM377 1474h205l-33 -544h-139z" />
<glyph unicode="#" d="M41 414l21 131h176l48 303h-176l21 131h185l61 389h151l-61 -385h266l61 385h152l-62 -389h181l-21 -131h-180l-49 -303h185l-21 -131h-185l-65 -414h-151l65 414h-266l-65 -414h-152l66 414h-185zM398 545h266l48 303h-266z" />
<glyph unicode="$" d="M98 1012q0 102 46 181t131.5 126t203.5 57v172h107v-168q180 -8 332 -57l-17 -185q-84 38 -150.5 56t-164.5 26v-417q98 -37 163 -67t123 -75t93 -109t35 -154q0 -110 -52 -198t-148 -143q-94 -55 -222 -69v-172h-107v172q-148 6 -352 61l12 201q162 -84 340 -90v479 q-373 111 -373 373zM295 1032q0 -66 40.5 -109t143.5 -83v368q-86 -15 -135 -61.5t-49 -114.5zM578 164q58 9 108 37.5t81 74.5t31 105q0 147 -220 221v-438z" />
<glyph unicode="%" horiz-adv-x="1671" d="M49 1036q0 110 38.5 189.5t110.5 120.5q72 42 174 42q154 0 239 -92t85 -260q0 -108 -39.5 -188t-113 -124t-171.5 -44q-99 0 -172.5 43t-111.5 123q-39 80 -39 190zM200 1032q0 -110 46 -172t126 -62t124 62t44 176q0 110 -44 174t-124 64t-126 -64t-46 -178zM332 -86 l868 1536h131l-868 -1536h-131zM971 336q0 110 38 189t111.5 121t173.5 42q154 0 239 -92t85 -260q0 -107 -40 -188t-113 -124.5t-171 -43.5q-100 0 -173 42.5t-111.5 123t-38.5 190.5zM1122 332q0 -110 46 -174t126 -64t124 64t44 174q0 113 -43 177.5t-121 64.5 q-82 0 -129 -64.5t-47 -177.5z" />
<glyph unicode="&#x26;" horiz-adv-x="1433" d="M164 377q0 142 83 234.5t228 154.5q-64 54 -107.5 140.5t-43.5 166.5q0 72 29 131t78.5 97.5t113 58.5t135.5 20q86 0 164.5 -33t127 -98t48.5 -155q0 -116 -83 -211t-204 -150l271 -327q72 134 86 336h180q-16 -300 -152 -468l234 -274h-242l-106 131 q-166 -159 -373 -159q-88 0 -171.5 26t-150.5 79t-106 129t-39 171zM368 381q0 -68 37 -124.5t98 -89t128 -32.5q135 0 262 127l-319 385q-100 -58 -153 -115.5t-53 -150.5zM512 1069q0 -56 29 -104.5t90 -124.5q96 58 152.5 112t56.5 130q0 64 -51 101t-117 37 q-63 0 -111.5 -43t-48.5 -108z" />
<glyph unicode="'" horiz-adv-x="385" d="M86 1474h205l-33 -544h-139z" />
<glyph unicode="(" horiz-adv-x="729" d="M127 536q0 160 41.5 321t111.5 311q70 148 166 306h172q-70 -128 -124 -252t-89 -242t-54 -230q-19 -114 -19 -214q0 -138 33 -291t99 -320.5t162 -342.5h-176q-82 130 -142 250t-100 238t-60.5 234t-20.5 232z" />
<glyph unicode=")" horiz-adv-x="729" d="M98 1474h176q110 -168 182 -328t107 -314q35 -156 35 -308q0 -126 -23.5 -248t-66 -238t-99.5 -230t-127 -226h-176q69 124 124.5 251t92.5 245t56 232t19 214q0 414 -300 950z" />
<glyph unicode="*" d="M168 1147l45 135l275 -98l-9 290h143l-12 -290l279 102l45 -139l-278 -82l180 -229l-119 -86l-164 241l-160 -241l-119 82l176 233z" />
<glyph unicode="+" d="M78 622v152h397v381h151v-381h394v-152h-394v-380h-151v380h-397z" />
<glyph unicode="," horiz-adv-x="557" d="M41 -266l123 487h221l-172 -487h-172z" />
<glyph unicode="-" horiz-adv-x="536" d="M0 430v152h516v-152h-516z" />
<glyph unicode="." horiz-adv-x="557" d="M164 0v221h221v-221h-221z" />
<glyph unicode="/" horiz-adv-x="901" d="M-62 -418l697 1892h155l-684 -1892h-168z" />
<glyph unicode="0" d="M86 692q0 130 21 250t72 222t142.5 163t227.5 61q184 0 288.5 -107t141.5 -266t37 -343q0 -290 -102 -495t-365 -205q-261 0 -362 214t-101 506zM286 688q0 -215 52 -384t215 -169q129 0 195.5 139.5t66.5 409.5q0 264 -68.5 404.5t-197.5 140.5q-84 0 -142.5 -63.5 t-89.5 -185.5t-31 -292z" />
<glyph unicode="1" d="M213 1090l336 278h180v-1368h-193v1155q-22 -32 -57 -64.5t-84 -72.5t-71 -60z" />
<glyph unicode="2" d="M110 0v209q104 88 200 174.5t197 197.5t168 221t67 202q0 96 -75 158t-192 62q-146 0 -311 -98l-20 176q112 47 188.5 64.5t171.5 17.5q131 0 232.5 -47.5t157.5 -134t56 -194.5q0 -87 -34 -173.5t-110.5 -187.5t-207.5 -233q-157 -156 -299 -262q49 12 147 12h533v-164 h-869z" />
<glyph unicode="3" d="M110 37l9 184q171 -77 331 -77q86 0 156 30t109 84t39 123q0 142 -118 196t-280 54q-37 -1 -65 -5v168q186 0 322.5 42t136.5 184q0 92 -76 148t-199 56q-144 0 -311 -65l-12 168q160 57 332 57q196 0 331 -86t135 -274q0 -82 -41.5 -150.5t-116 -111t-170.5 -50.5 q102 -6 179 -51t119 -123t42 -174q0 -116 -61 -203t-174.5 -134t-263.5 -47q-161 0 -353 57z" />
<glyph unicode="4" d="M45 299v164l553 905h278v-905h181v-164h-181v-299h-192v299h-639zM238 463h446v541q0 54 9 150t11 148q-20 -68 -61 -149t-143 -260l-132 -221q-92 -158 -130 -209z" />
<glyph unicode="5" d="M172 33l4 180q154 -65 278 -65q144 0 234 75.5t90 198.5q0 82 -42.5 146t-119 98t-178.5 34q-110 0 -258 -48l8 708h758v-164h-574l-8 -254q0 -70 -4 -102q80 20 152 20q138 0 247 -53.5t168.5 -150t59.5 -222.5q0 -134 -65.5 -236t-187.5 -158t-280 -56q-146 0 -282 49z " />
<glyph unicode="6" d="M106 639q0 368 142 558.5t416 190.5q144 0 278 -44l-24 -172q-120 58 -250 57q-131 0 -214.5 -75.5t-121 -192.5t-37.5 -244q40 70 124.5 110.5t186.5 40.5q88 0 163 -32t129 -89.5t84 -138t30 -174.5q0 -133 -56 -237.5t-156 -162.5t-226 -58q-151 0 -255.5 76 t-158.5 224t-54 363zM320 438q0 -130 72 -216q72 -87 178 -87q104 0 174.5 82.5t70.5 204.5q0 82 -32.5 148t-90 102t-127.5 36q-107 0 -176 -76t-69 -194z" />
<glyph unicode="7" d="M106 1196v160h873v-160l-512 -1196h-217l406 930q90 200 130 270q-18 0 -57 -2t-57 -2h-566z" />
<glyph unicode="8" d="M78 352q0 136 82 230t217 143q-117 25 -192 117t-75 215q0 108 64 183t165 111.5t206 36.5q102 0 202.5 -36t166 -110t65.5 -181q0 -112 -70 -195t-184 -133q134 -42 216.5 -137.5t82.5 -231.5q0 -121 -63 -209.5t-168 -133.5t-223 -45q-119 0 -232.5 42t-186.5 128 t-73 206zM291 377q0 -72 38.5 -127.5t101.5 -85t134 -29.5q102 0 180.5 58.5t78.5 154.5q0 114 -84 179.5t-224 119.5q-225 -112 -225 -270zM307 1052q0 -62 44.5 -111t103.5 -82t135 -65q188 120 188 258q0 86 -73 137.5t-165 51.5q-87 0 -160 -52.5t-73 -136.5z" />
<glyph unicode="9" d="M82 942q0 128 55 231t155 161t224 58q228 0 347.5 -167t119.5 -483q0 -378 -142.5 -572t-418.5 -194q-124 0 -270 48l24 172q120 -56 246 -56q132 0 214 74.5t119 188t43 244.5q-110 -147 -306 -147q-119 0 -212.5 56t-145.5 156.5t-52 229.5zM278 946q0 -123 72 -204.5 t178 -81.5q105 0 175.5 77.5t70.5 196.5q0 86 -32 153.5t-90 106.5t-128 39q-69 0 -125 -36.5t-88.5 -102.5t-32.5 -148z" />
<glyph unicode=":" horiz-adv-x="557" d="M164 0v221h221v-221h-221zM164 782v222h221v-222h-221z" />
<glyph unicode=";" horiz-adv-x="557" d="M41 -266l123 487h221l-168 -487h-176zM148 782v218h216v-218h-216z" />
<glyph unicode="&#x3c;" horiz-adv-x="1028" d="M70 614v156l884 430v-184l-688 -324l688 -324v-180z" />
<glyph unicode="=" d="M78 479v147h942v-147h-942zM78 766v148h942v-148h-942z" />
<glyph unicode="&#x3e;" horiz-adv-x="1028" d="M70 188v184l692 320l-692 324v184l888 -430v-156z" />
<glyph unicode="?" horiz-adv-x="1048" d="M200 1327q168 61 336 61q119 0 214 -44t147.5 -124t52.5 -184q0 -90 -39 -167t-149 -205q-58 -68 -82 -104t-32.5 -75t-8.5 -104h-176q0 120 23.5 187.5t91.5 143.5q24 28 58 67t59 76t40 77t15 84q0 92 -66 146t-176 54q-146 0 -295 -78zM450 0v213h210v-213h-210z" />
<glyph unicode="@" horiz-adv-x="1585" d="M98 680q0 198 95 361t260 257t362 94q138 0 257.5 -45t208.5 -127t137 -194t48 -240q0 -126 -47 -237.5t-126 -178.5t-167 -67q-60 0 -101 35.5t-50 95.5q-42 -67 -109.5 -105t-144.5 -38q-122 0 -204.5 93.5t-82.5 233.5q0 102 45 199t127 158q80 61 184 61 q160 0 218 -139l24 115h132l-82 -422q-12 -60 -13 -94q0 -36 18.5 -59t46.5 -23q54 0 103.5 52t80.5 138q30 86 30 178q0 106 -39 197t-109 157t-167 102t-214 36q-162 0 -297.5 -79t-213.5 -217t-78 -302q0 -126 44 -233.5t125 -186t190 -120.5t235 -42q230 0 421 86 l33 -118q-212 -90 -450 -90q-152 0 -286 51t-233.5 146t-155 225t-55.5 286zM582 622q0 -89 47 -142.5t125 -53.5q90 0 151 84.5t61 206.5q0 80 -43 130t-116 50q-60 0 -112 -37.5t-82.5 -101.5t-30.5 -136z" />
<glyph unicode="A" horiz-adv-x="1413" d="M12 0l582 1368h204l590 -1368h-216l-144 348h-664l-143 -348h-209zM426 512h532l-155 381q-80 174 -111 307q-26 -91 -114 -311z" />
<glyph unicode="B" horiz-adv-x="1200" d="M176 0v1368h324q102 0 200 -8q101 -14 176.5 -60.5t115.5 -119.5t40 -164q0 -258 -290 -320q331 -52 331 -326q0 -103 -49.5 -184.5t-139.5 -127.5q-56 -32 -127.5 -45t-191.5 -13h-389zM372 168h148q352 0 352 217q0 104 -60 157.5t-146 68.5t-191 15h-103v-458z M372 786h140q328 0 328 205q0 94 -57 140t-133 57.5t-179 11.5h-99v-414z" />
<glyph unicode="C" horiz-adv-x="1200" d="M98 692q0 148 52.5 274.5t149 219t227.5 141.5t288 49q176 0 311 -61l-16 -185q-76 44 -139 61t-143 17q-114 0 -210 -36.5t-166 -105.5t-107.5 -163.5t-37.5 -206.5q0 -150 68.5 -272t190.5 -191t270 -69q130 0 290 62l17 -189q-86 -27 -150.5 -38t-152.5 -11 q-213 0 -382 84t-264.5 243t-95.5 377z" />
<glyph unicode="D" horiz-adv-x="1433" d="M176 0v1368h283q130 0 229 -12q138 -13 255.5 -69t200 -146.5t127 -207.5t44.5 -253q0 -111 -32 -212t-91.5 -184.5t-145.5 -144.5t-190 -94q-130 -45 -368 -45h-312zM372 168h99q134 0 207.5 11t140.5 38q88 39 152.5 108t99.5 161t35 198q0 109 -41 207t-115 169 q-74 72 -168 104q-104 36 -307 36h-103v-1032z" />
<glyph unicode="E" horiz-adv-x="1093" d="M176 0v1368h762v-168h-566v-402h525v-167h-525v-463h582v-168h-778z" />
<glyph unicode="F" horiz-adv-x="1007" d="M176 0v1368h725v-168h-529v-410h508v-164h-508v-626h-196z" />
<glyph unicode="G" horiz-adv-x="1413" d="M98 692q0 212 98.5 367.5t268 236t379.5 80.5q206 0 372 -66l-12 -188q-156 86 -348 86q-160 0 -285 -64.5t-194.5 -182t-69.5 -269.5q0 -157 70 -279.5t197.5 -189.5t289.5 -67q74 0 184 28v398h-290v164h487v-693q-196 -65 -393 -65q-172 0 -311 49t-239 142t-152 223 t-52 290z" />
<glyph unicode="H" horiz-adv-x="1413" d="M176 0v1368h196v-574h660v574h197v-1368h-197v626h-660v-626h-196z" />
<glyph unicode="I" horiz-adv-x="577" d="M188 0v1368h197v-1368h-197z" />
<glyph unicode="J" horiz-adv-x="770" d="M41 8v168q67 -28 143 -28q92 0 136.5 49t54.5 117q10 70 10 174v880h197v-1036q-4 -112 -47.5 -191t-124.5 -120t-197 -41q-62 0 -172 28z" />
<glyph unicode="K" horiz-adv-x="1306" d="M176 0v1368h196v-458q0 -54 -2 -101t-2 -63q31 38 111 126l479 496h262l-646 -647l700 -721h-283l-495 532q-14 12 -31.5 31.5t-41.5 48.5q-25 28 -55 64q0 -26 2 -68t2 -72v-536h-196z" />
<glyph unicode="L" horiz-adv-x="987" d="M176 0v1368h196v-1200h578v-168h-774z" />
<glyph unicode="M" horiz-adv-x="1863" d="M176 0v1368h320l270 -688q120 -288 164 -459q56 196 164 463l258 684h328v-1368h-193v782q0 80 2 246q2 165 2 250q-30 -102 -63.5 -200t-69.5 -198q-37 -98 -80 -216l-258 -664h-188l-258 664q-26 68 -77 197.5t-85 224.5t-60 192q0 -16 -4 -20q0 -18 4 -48t4 -46 q16 -148 16 -398v-766h-196z" />
<glyph unicode="N" horiz-adv-x="1454" d="M176 0v1368h266l468 -807q142 -250 188 -389q-8 62 -16 184q0 78 -2 186q-2 106 -3 166v660h193v-1368h-254l-430 742q-114 200 -156 282q-42 80 -74 188q16 -230 16 -516v-696h-196z" />
<glyph unicode="O" horiz-adv-x="1540" d="M98 684q0 204 78 365t227.5 252t354.5 91t355.5 -90t229.5 -251t79 -367q0 -162 -45.5 -294t-132 -226t-208.5 -143t-274 -49q-204 0 -354.5 91.5t-230 254t-79.5 366.5zM307 684q0 -161 57.5 -288.5t161.5 -198t236 -70.5q128 0 231 70.5t161 196.5t58 282 q0 166 -57 294t-161 197.5t-240 69.5q-99 0 -181.5 -39.5t-142 -112.5t-91.5 -176t-32 -225z" />
<glyph unicode="P" horiz-adv-x="1093" d="M180 0v1368h270q234 0 344 -41q78 -28 134 -81.5t86 -127.5q30 -76 30 -160q0 -128 -65 -227t-181 -145q-104 -36 -314 -37h-112v-549h-192zM372 712h107q157 0 257 52t100 194q0 104 -70 166.5t-192 71.5q-66 4 -202 4v-488z" />
<glyph unicode="Q" horiz-adv-x="1540" d="M98 684q0 160 46.5 291t133 224t209.5 143t271 50q209 0 359.5 -91t227.5 -253.5t77 -371.5q0 -151 -43 -277.5t-124.5 -219.5t-197.5 -146l327 -299h-254l-262 242q-26 0 -57 -2t-45 -2q-150 0 -273 50t-212 145t-136 227t-47 290zM307 692q0 -164 57 -293t160 -200.5 t234 -71.5q133 0 236.5 69.5t160.5 196.5t57 287q0 124 -32 227t-93 177t-145 113.5t-184 39.5t-182 -38.5t-143 -111.5t-93.5 -174t-32.5 -221z" />
<glyph unicode="R" horiz-adv-x="1200" d="M176 0v1368h328q121 0 182.5 -7t128.5 -30q102 -34 163 -122q62 -87 62 -201q0 -132 -79 -215t-211 -105q68 -34 100 -69t72 -119l229 -500h-225l-176 410q-38 90 -69 130.5t-73 55.5q-42 14 -124 14h-112v-610h-196zM372 778h120q150 0 249 42t99 171q0 126 -92 167.5 t-236 41.5h-140v-422z" />
<glyph unicode="S" horiz-adv-x="987" d="M90 1020q0 108 53.5 193t151 132t225.5 47q153 0 299 -48l-25 -172q-138 52 -258 52q-110 0 -177.5 -51t-67.5 -137q0 -90 63.5 -137.5t219.5 -128t235.5 -163.5t79.5 -222q0 -121 -58 -215.5t-164 -146t-245 -51.5q-158 0 -312 56l21 185q147 -73 271 -73q82 0 146 28 t98 81t34 123q0 102 -69 155t-218 125t-226 150t-77 218z" />
<glyph unicode="T" horiz-adv-x="1093" d="M12 1200v168h1061v-168h-430v-1200h-193v1200h-438z" />
<glyph unicode="U" horiz-adv-x="1413" d="M176 622v742h196v-712q0 -150 10 -222t40 -127q36 -76 114 -119.5t176 -43.5q158 0 236 100t88 264q4 28 4 139v721h193v-766q0 -157 -17 -245.5t-61 -160.5q-139 -220 -447 -220q-113 0 -207 33t-164 97q-69 64 -107 152q-54 112 -54 368z" />
<glyph unicode="V" horiz-adv-x="1306" d="M12 1368h214l335 -901q67 -181 95 -307q32 136 94 307l332 901h204l-516 -1368h-238z" />
<glyph unicode="W" horiz-adv-x="1970" d="M8 1368h213l238 -798q64 -226 94 -378q49 254 86 382l197 794h282l209 -798q10 -37 29.5 -119.5t35.5 -148.5t30 -110q28 168 90 378l233 798h201l-410 -1368h-250l-238 897q-21 57 -46 177q-24 120 -27 134q-44 -218 -70 -311l-225 -897h-250z" />
<glyph unicode="X" horiz-adv-x="1306" d="M12 0l504 717l-463 651h233l366 -516l360 516h225l-459 -651l512 -717h-250l-405 586l-389 -586h-234z" />
<glyph unicode="Y" horiz-adv-x="1306" d="M12 1368h242l336 -512q38 -52 62 -102q12 28 52 94l344 520h230l-532 -786v-582h-193v574z" />
<glyph unicode="Z" d="M62 0v168l552 803q14 18 54 75t67 92.5t55 65.5q-62 -4 -188 -4h-516v168h918v-180l-590 -840q-28 -41 -68 -97t-60 -87q50 4 152 4h578v-168h-954z" />
<glyph unicode="[" horiz-adv-x="749" d="M196 -418v1892h382v-130h-206v-1630h206v-132h-382z" />
<glyph unicode="\" horiz-adv-x="901" d="M102 1474h156l692 -1892h-164z" />
<glyph unicode="]" horiz-adv-x="749" d="M152 -286h204v1630h-204v130h380v-1892h-380v132z" />
<glyph unicode="^" horiz-adv-x="1028" d="M41 729l352 643h242l352 -643h-197l-278 495l-274 -495h-197z" />
<glyph unicode="_" horiz-adv-x="1028" d="M0 -123h1024v-168h-1024v168z" />
<glyph unicode="`" horiz-adv-x="1028" d="M262 1483h205l159 -279h-130z" />
<glyph unicode="a" horiz-adv-x="1093" d="M90 286q0 159 136 243.5t388 84.5q74 0 140 -4q-3 129 -63.5 189.5t-186.5 60.5q-82 0 -149 -22t-146 -72l-13 160q160 94 336 94q141 0 236.5 -53t132.5 -152q33 -83 33 -279v-196q0 -226 8 -340h-168q-4 37 -4 78q0 53 4 94q-58 -96 -139 -142t-197 -46 q-105 0 -183.5 38t-121.5 107t-43 157zM286 291q0 -70 53 -113t140 -43q150 0 214.5 93.5t64.5 246.5q-40 4 -102 4q-370 0 -370 -188z" />
<glyph unicode="b" horiz-adv-x="1200" d="M148 0v1474h184v-528q0 -78 -4 -118q38 87 131 139.5t213 52.5q98 0 177 -35.5t136 -103t87 -161.5t30 -208q0 -158 -54 -278t-152 -185t-228 -65q-116 0 -206 49q-88 49 -138 139v-172h-176zM336 500q0 -98 38.5 -180.5t105 -129t146.5 -46.5q81 0 144.5 46t99 128 t35.5 186q0 105 -34.5 186t-97 125.5t-142.5 44.5q-83 0 -150 -46t-106 -129t-39 -185z" />
<glyph unicode="c" horiz-adv-x="901" d="M82 500q0 147 64 265t178 184.5t258 66.5q114 0 229 -41l-13 -164q-78 45 -184 45q-96 0 -173 -44t-120 -124t-43 -180q0 -104 42 -187t118 -128t172 -45q108 0 209 61l17 -168q-106 -53 -246 -53q-114 0 -207.5 36t-162 105t-103.5 163t-35 208z" />
<glyph unicode="d" horiz-adv-x="1200" d="M82 496q0 154 55 273t154 185t229 66q212 0 332 -176q0 22 -4 69t-4 70v491h188v-1007q0 -224 12 -467h-180v168q-117 -184 -344 -184q-100 0 -181 35.5t-139 103t-88 162.5t-30 211zM278 500q0 -102 36 -184t99.5 -127t143.5 -45q83 0 149.5 46t104 127t37.5 183 q0 100 -37.5 183t-102.5 130t-143 47q-82 0 -147.5 -45.5t-102.5 -128t-37 -186.5z" />
<glyph unicode="e" horiz-adv-x="1093" d="M82 512q0 152 58.5 270t166 182t246.5 64q235 0 334.5 -161t99.5 -413h-721q12 -99 57 -172.5t116.5 -112t162.5 -38.5q154 1 312 95v-177q-168 -77 -320 -77q-116 0 -211.5 38t-162.5 109t-102.5 172t-35.5 221zM270 598h533q-14 126 -75.5 204t-182.5 78 q-72 0 -129.5 -34t-95.5 -98t-50 -150z" />
<glyph unicode="f" horiz-adv-x="729" d="M8 852v148h234q0 141 22.5 244.5t94 171t206.5 67.5q61 -1 135 -17v-156q-41 12 -94 13q-112 0 -144 -71.5t-32 -203.5v-48h270v-148h-270v-852h-188v852h-234z" />
<glyph unicode="g" horiz-adv-x="1179" d="M82 496q0 154 54.5 273t153 185t226.5 66q117 0 208.5 -52t131.5 -140v176h172v-828q0 -204 -35.5 -334.5t-142 -203t-310.5 -72.5q-188 0 -380 70l20 180q186 -90 356 -90q213 0 283 151q20 39 26.5 83t7.5 112t3 92q-55 -80 -142 -124t-194 -44q-130 0 -229 62 t-154 176t-55 262zM278 500q0 -151 76.5 -247.5t198.5 -96.5q84 0 151.5 45t105.5 125t38 182q0 98 -38 179t-104 127t-145 46q-82 0 -146.5 -46t-100.5 -128t-36 -186z" />
<glyph unicode="h" horiz-adv-x="1179" d="M144 0v1474h188v-478q0 -42 -8 -156q106 180 336 180q145 0 227.5 -66t113.5 -174q31 -110 31 -256v-524h-184v434q0 192 -16 262q-44 164 -214 164q-92 0 -164 -55t-102 -149q-20 -66 -20 -258v-398h-188z" />
<glyph unicode="i" horiz-adv-x="495" d="M131 1241v205h201v-205h-201zM144 0v1004h184v-1004h-184z" />
<glyph unicode="j" horiz-adv-x="516" d="M-37 -262q15 -4 49 -4q98 0 131 61t33 168v1041h184v-980q0 -133 -17 -227.5t-80 -158.5t-189 -64q-53 0 -111 8v156zM168 1241v205h200v-205h-200z" />
<glyph unicode="k" horiz-adv-x="1069" d="M144 0v1474h188v-704q-8 -116 -8 -184q26 28 86 90l323 328h254l-467 -443l528 -561h-262l-340 368q-22 22 -60 73t-62 75q6 -28 6 -81q1 -55 2 -71v-364h-188z" />
<glyph unicode="l" horiz-adv-x="495" d="M144 0v1474h184v-1474h-184z" />
<glyph unicode="m" horiz-adv-x="1732" d="M144 1004h172l8 -164q40 84 124.5 132t190.5 48q232 0 295 -201q100 201 332 201q139 0 213.5 -69t98.5 -175t24 -248v-528h-189v492q-1 174 -17 233q-38 135 -172 135q-53 0 -100 -25.5t-82 -71.5q-34 -45 -51 -107q-20 -67 -20 -230v-426h-185v516q0 155 -16 209 q-18 64 -61 99.5t-103 35.5q-76 0 -137 -44t-95 -122.5t-34 -177.5v-516h-184v565q0 217 -12 439z" />
<glyph unicode="n" horiz-adv-x="1179" d="M144 1004h172l8 -160q120 176 344 176q162 0 244 -76.5t105 -192t23 -284.5v-467h-184v450q0 180 -16 246q-44 164 -214 164q-92 0 -163 -55t-99 -149q-16 -52 -20 -103t-4 -185v-368h-184v496q-2 62 -3 136t-1 127q-2 52 -4 116q-2 65 -4 129z" />
<glyph unicode="o" horiz-adv-x="1200" d="M82 500q0 151 65.5 271.5t183 188.5t263.5 68q110 0 205.5 -39t164 -109t105.5 -167t37 -213q0 -152 -66 -273t-184 -188t-266 -67q-144 0 -260.5 68t-182 189t-65.5 271zM278 500q0 -165 89 -271t227 -106q91 0 163 47.5t112.5 133t40.5 192.5q0 110 -40.5 198 t-112.5 137t-163 49q-90 0 -162.5 -49t-113.5 -135q-40 -86 -40 -196z" />
<glyph unicode="p" horiz-adv-x="1200" d="M144 1004h176l12 -176q122 192 348 192q128 0 225.5 -62.5t151 -177.5t53.5 -264q0 -158 -54 -279t-152.5 -187t-227.5 -66q-241 0 -344 200q12 -98 12 -196v-406h-188v983q0 217 -12 439zM344 500q0 -98 38 -179t105 -127t148 -46q79 0 142.5 46t100 128t36.5 182 q0 106 -34 187t-96.5 125t-144.5 44q-83 0 -150 -46t-106 -129t-39 -185z" />
<glyph unicode="q" horiz-adv-x="1200" d="M82 496q0 156 55 275t155 184t232 65q120 0 209 -54t135 -155q-8 27 -8 61q0 78 -4 119v13h180v-1422h-184v434q0 94 12 160q-118 -192 -348 -192q-100 0 -180 35.5t-137 103t-87 162.5t-30 211zM278 500q0 -103 36 -183.5t100.5 -124.5t146.5 -44t147.5 45t102.5 125 t37 182t-37 184.5t-102 129t-144 46.5q-83 0 -148 -46t-102 -128t-37 -186z" />
<glyph unicode="r" horiz-adv-x="749" d="M144 1004h172l8 -180q92 192 286 192q32 0 102 -12v-172q-48 16 -90 16q-142 0 -212 -116t-70 -265v-467h-184v610q0 198 -12 394z" />
<glyph unicode="s" horiz-adv-x="794" d="M74 729q0 86 42.5 152.5t121 102.5t184.5 36q110 0 234 -41l-17 -155q-105 48 -201 48q-77 0 -122.5 -34t-45.5 -92q0 -57 44 -87.5t160 -89.5t175 -121t59 -162q0 -90 -45 -160t-127.5 -108t-191.5 -38q-140 0 -258 61v164q136 -65 234 -65q85 0 138.5 37t53.5 93 t-46 88.5t-161 92t-173 121t-58 157.5z" />
<glyph unicode="t" horiz-adv-x="770" d="M-8 852v148h234v229l184 61v-290h266v-148h-266v-393q0 -136 12 -197q9 -55 50 -84q42 -30 106 -30q56 0 118 28v-160q-88 -28 -172 -28q-130 0 -196 53t-84 141t-18 224v446h-234z" />
<glyph unicode="u" horiz-adv-x="1179" d="M131 471v529h185v-464q0 -194 24 -266q56 -135 194 -135h2q84 0 149 45t99.5 126.5t34.5 189.5v504h185v-632q0 -130 16 -368h-172l-8 156q-126 -172 -340 -172q-142 0 -225 64.5t-113.5 171.5t-30.5 251z" />
<glyph unicode="v" horiz-adv-x="987" d="M12 1004h201l205 -578q18 -50 33 -91t26 -81.5t15 -77.5q10 70 44 160l234 668h184l-360 -1004h-213z" />
<glyph unicode="w" horiz-adv-x="1626" d="M12 1004h205l164 -541q49 -146 73 -295q5 18 22.5 96t35.5 113l196 627h218l184 -554q23 -63 78 -282q12 102 70 291l168 545h184l-320 -1004h-213l-172 516q-68 208 -94 328q-40 -178 -90 -324l-164 -520h-213z" />
<glyph unicode="x" horiz-adv-x="987" d="M12 0l360 528l-331 476h225l164 -250q48 -68 66 -123q10 28 69 127l156 246h205l-320 -476l356 -528h-229l-188 291q-46 75 -66 119q-12 -40 -61 -115l-188 -295h-218z" />
<glyph unicode="y" horiz-adv-x="987" d="M12 1004h201l225 -636q40 -114 54 -204q8 54 40 160l238 680h184l-356 -992q-52 -146 -93 -231t-118 -146t-199 -61q-44 0 -114 16l12 152q46 -20 86 -20q154 0 226 237z" />
<glyph unicode="z" horiz-adv-x="987" d="M74 0v152l475 581q17 23 111 127q-45 -4 -140 -4h-422v148h766v-160l-483 -586q-39 -46 -103 -118q49 8 70 8h541v-148h-815z" />
<glyph unicode="{" horiz-adv-x="1028" d="M282 463v131q62 19 89 62q27 42 27 126v410q0 124 45 186t122 79t201 17v-130q-83 0 -123 -13t-54.5 -48t-14.5 -107v-402q0 -101 -26 -153.5t-94 -92.5q66 -40 93 -94t27 -152v-396q0 -77 19 -114.5t58 -47.5t115 -10v-132q-126 0 -203 21t-121 86t-44 192v389 q0 90 -27 134t-89 59z" />
<glyph unicode="|" horiz-adv-x="1028" d="M422 -344v1708h184v-1708h-184z" />
<glyph unicode="}" horiz-adv-x="1028" d="M246 -286q83 0 122.5 13t54.5 47.5t15 106.5v405q0 99 26 150.5t93 91.5q-67 40 -93 94t-26 156v394q0 70 -15.5 106.5t-53 51t-107.5 14.5h-16v130q132 0 207 -17.5t118 -82t43 -198.5v-390q0 -90 26.5 -133t88.5 -59v-131q-60 -15 -87 -59q-28 -46 -28 -130v-409 q0 -122 -44.5 -183.5t-121 -80.5t-202.5 -19v132z" />
<glyph unicode="~" horiz-adv-x="1028" d="M20 602q59 132 125.5 191t161.5 59q50 0 98 -16t118.5 -49t112.5 -47.5t89 -14.5q56 0 93.5 27.5t82.5 103.5l107 -66q-118 -242 -308 -241q-60 0 -131 30.5t-143 61.5t-131 31q-52 0 -90 -32t-78 -108z" />
<glyph horiz-adv-x="1241" d="M406 586q0 54 26.5 99t72 71t97.5 26q54 0 100 -26t73.5 -71t27.5 -99q0 -52 -27.5 -98t-73.5 -72.5t-100 -26.5q-52 0 -97.5 26.5t-72 72.5t-26.5 98z" />
<glyph horiz-adv-x="794" d="M74 729q0 86 42.5 152.5t121 102.5t184.5 36q110 0 234 -41l-17 -155q-105 48 -201 48q-77 0 -122.5 -34t-45.5 -92q0 -57 44 -87.5t160 -89.5t175 -121t59 -162q0 -90 -45 -160t-127.5 -108t-191.5 -38q-140 0 -258 61v164q136 -65 234 -65q85 0 138.5 37t53.5 93 t-46 88.5t-161 92t-173 121t-58 157.5zM94 -398l33 74q70 -28 135 -28q49 0 78 20q28 22 28 58q0 34 -27 56t-71 22q-26 0 -74 -17l-32 33l118 168h86l-86 -119q40 8 74 8q72 0 118 -39t46 -100q0 -80 -66 -128t-172 -48q-100 0 -188 40z" />
<glyph horiz-adv-x="1413" d="M98 692q0 212 98.5 367.5t268 236t379.5 80.5q206 0 372 -66l-12 -188q-156 86 -348 86q-160 0 -285 -64.5t-194.5 -182t-69.5 -269.5q0 -157 70 -279.5t197.5 -189.5t289.5 -67q74 0 184 28v398h-290v164h487v-693q-196 -65 -393 -65q-172 0 -311 49t-239 142t-152 223 t-52 290zM467 1753h103q32 -151 196 -151q92 0 144 36t73 115h99q-9 -123 -93.5 -196.5t-218.5 -73.5q-88 0 -155 32.5t-106 93.5t-42 144z" />
<glyph unicode="&#xa1;" horiz-adv-x="815" d="M242 -364l32 986h168l25 -986h-225zM254 790v214h209v-214h-209z" />
<glyph unicode="&#xa8;" horiz-adv-x="1028" d="M238 1245v197h176v-197h-176zM610 1245v197h176v-197h-176z" />
<glyph unicode="&#xa9;" horiz-adv-x="1626" d="M98 684q0 190 96 353.5t259.5 259t353.5 95.5t352.5 -95.5t257.5 -259t95 -353.5q0 -192 -95 -356t-257 -260t-353 -96q-190 0 -353.5 96t-259.5 260.5t-96 355.5zM209 684q0 -164 80.5 -305t219 -223t298.5 -82t297.5 82t217 223t79.5 305t-79.5 304t-217 221t-297.5 81 q-162 0 -300 -81t-218 -221t-80 -304zM418 688q0 112 55.5 201t155.5 138.5t227 49.5q117 -1 196 -37l-12 -118q-93 50 -180 49q-88 0 -157 -35.5t-107.5 -100.5t-38.5 -147q0 -123 88.5 -204.5t222.5 -81.5q76 0 180 36l9 -122q-95 -30 -189 -30q-136 0 -238 49.5 t-157 140.5t-55 212z" />
<glyph unicode="&#xaa;" horiz-adv-x="749" d="M86 954q0 63 40 108.5t115 69t181 23.5q14 0 42 -2t40 -2q0 131 -148 131q-52 0 -94 -14q-41 -14 -98 -48l-8 116q102 56 216 56q148 0 205.5 -69t57.5 -221v-78q0 -168 8 -250h-123q-4 29 -4 82q-40 -47 -87 -68.5t-113 -21.5q-104 0 -167 51t-63 137zM106 574v98h537 v-98h-537zM226 954q0 -36 32 -61t82 -25q83 0 125.5 52.5t42.5 136.5h-54q-228 -1 -228 -103z" />
<glyph unicode="&#xab;" d="M110 508l275 397h180l-253 -397l258 -406h-177zM508 508l274 397h180l-254 -397l258 -406h-176z" />
<glyph unicode="&#xac;" horiz-adv-x="1028" d="M70 377v172h884v-549h-184v377h-700z" />
<glyph unicode="&#xad;" horiz-adv-x="536" d="M0 430v152h516v-152h-516z" />
<glyph unicode="&#xae;" horiz-adv-x="1626" d="M98 684q0 190 96 353.5t259.5 259t353.5 95.5t352.5 -95.5t257.5 -259t95 -353.5q0 -192 -95 -356t-257 -260t-353 -96q-190 0 -353.5 96t-259.5 260.5t-96 355.5zM209 684q0 -164 80.5 -305t219 -223t298.5 -82t297.5 82t217 223t79.5 305t-79.5 304t-217 221t-297.5 81 q-162 0 -300 -81t-218 -221t-80 -304zM545 291v782h205q142 0 234.5 -41.5t92.5 -167.5q1 -148 -155 -184q30 -15 47 -35.5t35 -62.5l147 -291h-155l-107 237q-20 46 -38 69t-43 31q-24 7 -70 7h-62v-344h-131zM676 746h66q108 0 154 25t46 85q0 58 -44 82t-144 24h-78v-216 z" />
<glyph unicode="&#xaf;" horiz-adv-x="1028" d="M172 1286v115h680v-115h-680z" />
<glyph unicode="&#xb0;" horiz-adv-x="794" d="M86 1204q0 120 88 205.5t211 85.5q80 0 148.5 -39t109.5 -106.5t41 -145.5q0 -80 -40.5 -148t-110 -107t-148.5 -39q-80 0 -149 39t-109.5 107t-40.5 148zM205 1204q0 -76 51.5 -128t128.5 -52q74 0 127 51.5t53 124.5q0 50 -24.5 91.5t-65.5 65t-90 23.5q-76 0 -128 -51 t-52 -125z" />
<glyph unicode="&#xb1;" d="M78 119v147h942v-147h-942zM78 746v151h397v381h151v-381h394v-151h-394v-382h-151v382h-397z" />
<glyph unicode="&#xb2;" horiz-adv-x="749" d="M98 545v143q97 86 165 151t127.5 149t59.5 150q0 47 -36 77t-94 30q-75 1 -189 -65l-17 143q128 53 226 53q78 0 139 -30t94 -83t33 -120q0 -64 -30.5 -129.5t-79 -126t-99.5 -111t-115 -104.5h340v-127h-524z" />
<glyph unicode="&#xb3;" horiz-adv-x="749" d="M94 570l8 147q118 -53 205 -53q64 0 108 34q44 32 44 84q0 122 -205 123h-58v131h46q102 0 157 30t55 85q0 46 -38 75q-36 28 -96 28q-80 0 -193 -54l-8 136q107 40 209 40q86 0 148 -27t96 -78t34 -120q0 -116 -122 -180q68 -34 99 -81t31 -120q0 -72 -37 -125t-106 -83 t-159 -30q-100 0 -218 38z" />
<glyph unicode="&#xb4;" horiz-adv-x="1028" d="M398 1204l163 279h205l-238 -279h-130z" />
<glyph unicode="&#xb5;" d="M123 -348v1331h184v-533q0 -109 15.5 -163.5t58.5 -98.5q70 -70 168 -69q90 0 145 51.5t77.5 130.5t22.5 166v516h185v-983h-185v160q-43 -95 -103.5 -139.5t-145.5 -44.5q-52 0 -95 15t-77.5 46.5t-65.5 81.5v-467h-184z" />
<glyph unicode="&#xb6;" d="M45 983q0 131 56 218t154.5 127t228.5 40h544v-144h-106v-1642h-156v1642h-180v-1642h-160v1028q-12 -4 -28 -4q-104 0 -184 48t-124.5 134.5t-44.5 194.5z" />
<glyph unicode="&#xb8;" horiz-adv-x="1028" d="M438 -385l33 73q68 -28 135 -28q50 0 78 21t28 57q0 34 -27 56t-71 22q-24 0 -74 -16l-32 32l118 168h86l-86 -119q40 9 74 9q70 0 117 -39.5t47 -100.5q0 -79 -66 -127.5t-172 -48.5q-100 0 -188 41z" />
<glyph unicode="&#xb9;" horiz-adv-x="749" d="M148 1188l208 176h123v-819h-143v635l-102 -94z" />
<glyph unicode="&#xba;" horiz-adv-x="856" d="M86 1073q0 90 43 163.5t119 114.5t170 41t170 -40t119 -113.5t43 -165.5t-43 -165.5t-119 -113.5t-170 -40q-144 0 -238 90.5t-94 228.5zM106 574v98h623v-98h-623zM226 1073q0 -94 54 -155.5t138 -61.5t138 60.5t54 152.5q0 64 -24.5 114.5t-69 78.5t-98.5 28 q-84 0 -138 -61t-54 -156z" />
<glyph unicode="&#xbb;" d="M131 102l258 406l-254 397h181l274 -397l-283 -406h-176zM528 102l262 406l-254 397h176l275 -397l-283 -406h-176z" />
<glyph unicode="&#xbc;" horiz-adv-x="1777" d="M148 1192l208 176h123v-823h-143v635l-102 -90zM450 -66l746 1500h119l-745 -1500h-120zM1098 172v114l319 538h189v-521h102v-131h-102v-172h-148v172h-360zM1262 303h196l4 291q4 24 4 70q-17 -34 -80.5 -140t-88.5 -149t-35 -72z" />
<glyph unicode="&#xbd;" horiz-adv-x="1777" d="M148 1192l208 176h123v-823h-143v635l-102 -90zM450 -66l746 1500h119l-745 -1500h-120zM1134 0v148q124 107 202.5 188.5t116.5 144.5t38 113q0 46 -38.5 76t-96.5 30q-84 0 -188 -65l-17 143q127 54 225 54q78 0 140 -29.5t96 -82.5t34 -122q0 -82 -51 -167t-118 -153 t-158 -147h344v-131h-529z" />
<glyph unicode="&#xbe;" horiz-adv-x="1777" d="M98 570l8 147q112 -53 201 -53q68 0 110 33t42 85q0 122 -205 123h-54v131h46q208 0 208 115q0 46 -36 74.5t-98 28.5q-76 0 -189 -54l-12 136q113 40 209 40q132 0 205 -60t73 -165q0 -119 -122 -180q70 -34 100 -80.5t30 -120.5q0 -71 -37 -124.5t-105 -83.5t-156 -30 q-106 0 -218 38zM450 -66l746 1500h123l-749 -1500h-120zM1102 172v114l320 538h184v-521h102v-131h-102v-172h-144v172h-360zM1266 303h196l4 291v70q-19 -40 -79 -142t-83.5 -143t-37.5 -76z" />
<glyph unicode="&#xbf;" horiz-adv-x="1048" d="M94 -37q0 90 40 169q38 79 152 208q78 94 99 140q21 44 21 138h176q0 -121 -22 -186.5t-89 -140.5q-59 -64 -91 -104t-56.5 -91.5t-24.5 -107.5q0 -62 28.5 -108t82.5 -70q54 -23 130 -23q138 -1 292 73l12 -188q-162 -62 -332 -61q-120 0 -215.5 45t-149 125.5 t-53.5 181.5zM389 786v214h209v-214h-209z" />
<glyph unicode="&#xc0;" horiz-adv-x="1413" d="M12 0l582 1368h204l590 -1368h-216l-144 348h-664l-143 -348h-209zM426 512h532l-155 381q-80 174 -111 307q-26 -91 -114 -311zM450 1794h206l159 -282h-131z" />
<glyph unicode="&#xc1;" horiz-adv-x="1413" d="M12 0l582 1368h204l590 -1368h-216l-144 348h-664l-143 -348h-209zM426 512h532l-155 381q-80 174 -111 307q-26 -91 -114 -311zM586 1512l164 282h204l-237 -282h-131z" />
<glyph unicode="&#xc2;" horiz-adv-x="1413" d="M12 0l582 1368h204l590 -1368h-216l-144 348h-664l-143 -348h-209zM402 1512l204 282h184l206 -282h-168l-136 188l-139 -188h-151zM426 512h532l-155 381q-80 174 -111 307q-26 -91 -114 -311z" />
<glyph unicode="&#xc3;" horiz-adv-x="1413" d="M12 0l582 1368h204l590 -1368h-216l-144 348h-664l-143 -348h-209zM364 1536q16 104 70 158.5t140 54.5q35 0 68.5 -10.5t76.5 -28.5t69 -26t56 -8q40 0 61.5 20t36.5 70h94q-12 -100 -65 -159t-127 -59q-33 0 -67 10t-78.5 29t-78 29t-63.5 10q-38 0 -60.5 -21 t-37.5 -69h-95zM426 512h532l-155 381q-80 174 -111 307q-26 -91 -114 -311z" />
<glyph unicode="&#xc4;" horiz-adv-x="1413" d="M12 0l582 1368h204l590 -1368h-216l-144 348h-664l-143 -348h-209zM426 512h532l-155 381q-80 174 -111 307q-26 -91 -114 -311zM426 1552v197h180v-197h-180zM798 1552v197h181v-197h-181z" />
<glyph unicode="&#xc5;" horiz-adv-x="1413" d="M12 0l582 1368h204l590 -1368h-216l-144 348h-664l-143 -348h-209zM426 512h532l-155 381q-80 174 -111 307q-26 -91 -114 -311zM500 1650q0 52 27 98t73 73t100 27q52 0 98 -27t72.5 -73t26.5 -98q0 -54 -26.5 -100t-72.5 -73t-98 -27q-83 0 -142 58q-58 58 -58 142z M602 1650q0 -39 30 -68q28 -30 68 -30q39 0 68.5 29t29.5 69t-29 69.5t-69 29.5t-69 -29.5t-29 -69.5z" />
<glyph unicode="&#xc6;" horiz-adv-x="1863" d="M12 0l824 1368h860v-168h-549l33 -410h483v-168h-471l28 -454h500v-168h-680l-24 352h-578l-204 -352h-222zM532 516h472l-46 708z" />
<glyph unicode="&#xc7;" horiz-adv-x="1200" d="M102 692q0 150 53 277t149 218t229 140t291 49q178 0 306 -61l-16 -185q-76 44 -139 61t-143 17q-152 0 -270 -64.5t-184 -182t-66 -269.5q0 -148 68.5 -269.5t191 -190t272.5 -68.5q114 0 286 62l17 -189q-154 -49 -291 -49q-38 0 -66 4l-82 -111q60 13 78 13 q46 0 83 -19t57 -51.5t20 -73.5q0 -76 -67 -126t-171 -50q-94 0 -188 41l37 73q68 -28 131 -28q50 0 78 21t28 57q0 34 -25 56t-69 22q-24 0 -78 -16l-32 36l118 160q-119 19 -195.5 49.5t-152.5 89.5q-126 95 -192 238t-66 319z" />
<glyph unicode="&#xc8;" horiz-adv-x="1093" d="M176 0v1368h762v-168h-566v-402h525v-167h-525v-463h582v-168h-778zM291 1794h205l160 -282h-132z" />
<glyph unicode="&#xc9;" horiz-adv-x="1093" d="M176 0v1368h762v-168h-566v-402h525v-167h-525v-463h582v-168h-778zM426 1512l164 282h204l-237 -282h-131z" />
<glyph unicode="&#xca;" horiz-adv-x="1093" d="M176 0v1368h762v-168h-566v-402h525v-167h-525v-463h582v-168h-778zM242 1512l204 282h185l205 -282h-168l-136 188l-139 -188h-151z" />
<glyph unicode="&#xcb;" horiz-adv-x="1093" d="M176 0v1368h762v-168h-566v-402h525v-167h-525v-463h582v-168h-778zM266 1552v197h180v-197h-180zM639 1552v197h180v-197h-180z" />
<glyph unicode="&#xcc;" horiz-adv-x="577" d="M37 1794h205l160 -282h-132zM188 0v1368h197v-1368h-197z" />
<glyph unicode="&#xcd;" horiz-adv-x="577" d="M172 1512l164 282h204l-237 -282h-131zM188 0v1368h197v-1368h-197z" />
<glyph unicode="&#xce;" horiz-adv-x="577" d="M-12 1512l204 282h185l205 -282h-168l-136 188l-138 -188h-152zM188 0v1368h197v-1368h-197z" />
<glyph unicode="&#xcf;" horiz-adv-x="577" d="M12 1552v197h176v-197h-176zM188 0v1368h197v-1368h-197zM385 1552v197h176v-197h-176z" />
<glyph unicode="&#xd0;" horiz-adv-x="1413" d="M98 692q0 212 98.5 367.5t268 236t379.5 80.5q206 0 372 -66l-12 -188q-156 86 -348 86q-160 0 -285 -64.5t-194.5 -182t-69.5 -269.5q0 -157 70 -279.5t197.5 -189.5t289.5 -67q74 0 184 28v398h-290v164h487v-693q-196 -65 -393 -65q-172 0 -311 49t-239 142t-152 223 t-52 290zM467 1753h103q32 -151 196 -151q92 0 144 36t73 115h99q-9 -123 -93.5 -196.5t-218.5 -73.5q-88 0 -155 32.5t-106 93.5t-42 144z" />
<glyph unicode="&#xd1;" horiz-adv-x="1454" d="M176 0v1368h266l468 -807q142 -250 188 -389q-8 62 -16 184q0 78 -2 186q-2 106 -3 166v660h193v-1368h-254l-430 742q-114 200 -156 282q-42 80 -74 188q16 -230 16 -516v-696h-196zM389 1536q32 213 205 213q35 0 69 -10.5t76.5 -28.5t68.5 -26t56 -8q76 0 98 90h99 q-15 -100 -68 -159t-129 -59q-32 0 -64 10t-78.5 29t-80 29t-63.5 10q-37 0 -57.5 -20t-36.5 -70h-95z" />
<glyph unicode="&#xd2;" horiz-adv-x="1540" d="M98 684q0 204 78 365t227.5 252t354.5 91t355.5 -90t229.5 -251t79 -367q0 -162 -45.5 -294t-132 -226t-208.5 -143t-274 -49q-204 0 -354.5 91.5t-230 254t-79.5 366.5zM307 684q0 -161 57.5 -288.5t161.5 -198t236 -70.5q128 0 231 70.5t161 196.5t58 282 q0 166 -57 294t-161 197.5t-240 69.5q-99 0 -181.5 -39.5t-142 -112.5t-91.5 -176t-32 -225zM508 1790h204l164 -278h-130z" />
<glyph unicode="&#xd3;" horiz-adv-x="1540" d="M98 684q0 204 78 365t227.5 252t354.5 91t355.5 -90t229.5 -251t79 -367q0 -162 -45.5 -294t-132 -226t-208.5 -143t-274 -49q-204 0 -354.5 91.5t-230 254t-79.5 366.5zM307 684q0 -161 57.5 -288.5t161.5 -198t236 -70.5q128 0 231 70.5t161 196.5t58 282 q0 166 -57 294t-161 197.5t-240 69.5q-99 0 -181.5 -39.5t-142 -112.5t-91.5 -176t-32 -225zM647 1512l160 278h205l-234 -278h-131z" />
<glyph unicode="&#xd4;" horiz-adv-x="1540" d="M98 684q0 204 78 365t227.5 252t354.5 91t355.5 -90t229.5 -251t79 -367q0 -162 -45.5 -294t-132 -226t-208.5 -143t-274 -49q-204 0 -354.5 91.5t-230 254t-79.5 366.5zM307 684q0 -161 57.5 -288.5t161.5 -198t236 -70.5q128 0 231 70.5t161 196.5t58 282 q0 166 -57 294t-161 197.5t-240 69.5q-99 0 -181.5 -39.5t-142 -112.5t-91.5 -176t-32 -225zM463 1512l205 278h180l209 -278h-173l-130 188l-140 -188h-151z" />
<glyph unicode="&#xd5;" horiz-adv-x="1540" d="M98 684q0 204 78 365t227.5 252t354.5 91t355.5 -90t229.5 -251t79 -367q0 -162 -45.5 -294t-132 -226t-208.5 -143t-274 -49q-204 0 -354.5 91.5t-230 254t-79.5 366.5zM307 684q0 -161 57.5 -288.5t161.5 -198t236 -70.5q128 0 231 70.5t161 196.5t58 282 q0 166 -57 294t-161 197.5t-240 69.5q-99 0 -181.5 -39.5t-142 -112.5t-91.5 -176t-32 -225zM422 1536q32 213 209 213q34 0 68.5 -10.5t76.5 -28.5t68.5 -26t56.5 -8q40 0 61.5 20t37.5 70h94q-12 -100 -65 -159t-128 -59q-33 0 -67 10t-79 29t-77 29q-34 10 -64 10 q-70 0 -98 -90h-94z" />
<glyph unicode="&#xd6;" horiz-adv-x="1540" d="M98 684q0 204 78 365t227.5 252t354.5 91t355.5 -90t229.5 -251t79 -367q0 -162 -45.5 -294t-132 -226t-208.5 -143t-274 -49q-204 0 -354.5 91.5t-230 254t-79.5 366.5zM307 684q0 -161 57.5 -288.5t161.5 -198t236 -70.5q128 0 231 70.5t161 196.5t58 282 q0 166 -57 294t-161 197.5t-240 69.5q-99 0 -181.5 -39.5t-142 -112.5t-91.5 -176t-32 -225zM484 1552v197h180v-197h-180zM856 1552v197h180v-197h-180z" />
<glyph unicode="&#xd7;" d="M148 398l298 298l-298 300l106 106l299 -299l299 299l106 -106l-298 -300l298 -298l-106 -107l-299 299l-299 -299z" />
<glyph unicode="&#xd8;" horiz-adv-x="1540" d="M98 684q0 202 78 363t226 253t352 92q220 0 376 -94l120 160l110 -86l-127 -164q189 -202 189 -524q0 -160 -46 -293t-132 -226.5t-208 -143t-270 -49.5q-227 0 -389 110l-127 -164l-106 86l130 172q-83 98 -129.5 231.5t-46.5 276.5zM307 684q1 -184 91 -352l614 827 q-103 78 -254 78q-101 0 -184 -39.5t-143 -112.5t-92 -176t-32 -225zM492 226q123 -94 270 -95q130 0 233 69.5t160 195t57 284.5q0 211 -102 377z" />
<glyph unicode="&#xd9;" horiz-adv-x="1413" d="M176 622v742h196v-712q0 -150 10 -222t40 -127q36 -76 114 -119.5t176 -43.5q158 0 236 100t88 264q4 28 4 139v721h193v-766q0 -157 -17 -245.5t-61 -160.5q-139 -220 -447 -220q-113 0 -207 33t-164 97q-69 64 -107 152q-54 112 -54 368zM454 1790h206l164 -278h-132z " />
<glyph unicode="&#xda;" horiz-adv-x="1413" d="M176 622v742h196v-712q0 -150 10 -222t40 -127q36 -76 114 -119.5t176 -43.5q158 0 236 100t88 264q4 28 4 139v721h193v-766q0 -157 -17 -245.5t-61 -160.5q-139 -220 -447 -220q-113 0 -207 33t-164 97q-69 64 -107 152q-54 112 -54 368zM590 1512l164 278h204 l-237 -278h-131z" />
<glyph unicode="&#xdb;" horiz-adv-x="1413" d="M176 622v742h196v-712q0 -150 10 -222t40 -127q36 -76 114 -119.5t176 -43.5q158 0 236 100t88 264q4 28 4 139v721h193v-766q0 -157 -17 -245.5t-61 -160.5q-139 -220 -447 -220q-113 0 -207 33t-164 97q-69 64 -107 152q-54 112 -54 368zM406 1512l204 278h184 l206 -278h-168l-136 188l-139 -188h-151z" />
<glyph unicode="&#xdc;" horiz-adv-x="1413" d="M176 622v742h196v-712q0 -150 10 -222t40 -127q36 -76 114 -119.5t176 -43.5q158 0 236 100t88 264q4 28 4 139v721h193v-766q0 -157 -17 -245.5t-61 -160.5q-139 -220 -447 -220q-113 0 -207 33t-164 97q-69 64 -107 152q-54 112 -54 368zM430 1552v197h180v-197h-180z M803 1552v197h180v-197h-180z" />
<glyph unicode="&#xdd;" horiz-adv-x="577" d="M176 1474v206h201v-206h-201zM188 0v1368h197v-1368h-197z" />
<glyph unicode="&#xde;" horiz-adv-x="987" d="M90 1020q0 108 53.5 193t151 132t225.5 47q153 0 299 -48l-25 -172q-138 52 -258 52q-110 0 -177.5 -51t-67.5 -137q0 -90 63.5 -137.5t219.5 -128t235.5 -163.5t79.5 -222q0 -121 -58 -215.5t-164 -146t-245 -51.5q-158 0 -312 56l21 185q147 -73 271 -73q82 0 146 28 t98 81t34 123q0 102 -69 155t-218 125t-226 150t-77 218zM200 -406l34 74q68 -28 134 -28q50 0 78 20q29 22 29 58q0 34 -27.5 55.5t-70.5 21.5q-24 0 -74 -16l-33 33l119 168h86l-86 -120q41 8 74 9q71 0 117 -39.5t46 -99.5q0 -52 -30 -92.5t-83.5 -62t-123.5 -21.5 q-101 0 -189 40z" />
<glyph unicode="&#xdf;" horiz-adv-x="1200" d="M144 0v889q0 152 15 239t54 154q56 98 157.5 151.5t231.5 53.5q90 0 167 -28t132 -80.5t85 -125.5t30 -159q0 -113 -62 -196q-62 -82 -172 -120q86 -4 157 -53t111 -133t40 -186q0 -130 -59 -226t-161.5 -146t-230.5 -50q-69 0 -172 16v164q77 -29 151 -29 q81 0 142.5 34.5t95 97.5t33.5 147q0 286 -369 286v148q299 0 299 250q0 71 -28 125.5t-79.5 85.5t-117.5 31q-237 0 -262 -344q-4 -44 -4 -168v-828h-184z" />
<glyph unicode="&#xe0;" horiz-adv-x="1093" d="M90 286q0 159 136 243.5t388 84.5q74 0 140 -4q-3 129 -63.5 189.5t-186.5 60.5q-82 0 -149 -22t-146 -72l-13 160q160 94 336 94q141 0 236.5 -53t132.5 -152q33 -83 33 -279v-196q0 -226 8 -340h-168q-4 37 -4 78q0 53 4 94q-58 -96 -139 -142t-197 -46 q-105 0 -183.5 38t-121.5 107t-43 157zM286 291q0 -70 53 -113t140 -43q150 0 214.5 93.5t64.5 246.5q-40 4 -102 4q-370 0 -370 -188zM291 1483h205l160 -279h-132z" />
<glyph unicode="&#xe1;" horiz-adv-x="1093" d="M90 286q0 159 136 243.5t388 84.5q74 0 140 -4q-3 129 -63.5 189.5t-186.5 60.5q-82 0 -149 -22t-146 -72l-13 160q160 94 336 94q141 0 236.5 -53t132.5 -152q33 -83 33 -279v-196q0 -226 8 -340h-168q-4 37 -4 78q0 53 4 94q-58 -96 -139 -142t-197 -46 q-105 0 -183.5 38t-121.5 107t-43 157zM286 291q0 -70 53 -113t140 -43q150 0 214.5 93.5t64.5 246.5q-40 4 -102 4q-370 0 -370 -188zM426 1204l164 279h204l-237 -279h-131z" />
<glyph unicode="&#xe2;" horiz-adv-x="1093" d="M90 286q0 159 136 243.5t388 84.5q74 0 140 -4q-3 129 -63.5 189.5t-186.5 60.5q-82 0 -149 -22t-146 -72l-13 160q160 94 336 94q141 0 236.5 -53t132.5 -152q33 -83 33 -279v-196q0 -226 8 -340h-168q-4 37 -4 78q0 53 4 94q-58 -96 -139 -142t-197 -46 q-105 0 -183.5 38t-121.5 107t-43 157zM246 1204l204 279h181l209 -279h-172l-132 188l-138 -188h-152zM286 291q0 -70 53 -113t140 -43q150 0 214.5 93.5t64.5 246.5q-40 4 -102 4q-370 0 -370 -188z" />
<glyph unicode="&#xe3;" horiz-adv-x="1093" d="M90 286q0 159 136 243.5t388 84.5q74 0 140 -4q-3 129 -63.5 189.5t-186.5 60.5q-82 0 -149 -22t-146 -72l-13 160q160 94 336 94q141 0 236.5 -53t132.5 -152q33 -83 33 -279v-196q0 -226 8 -340h-168q-4 37 -4 78q0 53 4 94q-58 -96 -139 -142t-197 -46 q-105 0 -183.5 38t-121.5 107t-43 157zM205 1229q16 104 69.5 158.5t139.5 54.5q35 0 68.5 -10t79.5 -29.5t69 -27t53 -7.5q40 0 62 20.5t36 69.5h94q-12 -100 -64.5 -158.5t-127.5 -58.5q-33 0 -64.5 9.5t-78.5 28.5t-80 29.5t-63 10.5q-70 0 -99 -90h-94zM286 291 q0 -70 53 -113t140 -43q150 0 214.5 93.5t64.5 246.5q-40 4 -102 4q-370 0 -370 -188z" />
<glyph unicode="&#xe4;" horiz-adv-x="1093" d="M90 286q0 159 136 243.5t388 84.5q74 0 140 -4q-3 129 -63.5 189.5t-186.5 60.5q-82 0 -149 -22t-146 -72l-13 160q160 94 336 94q141 0 236.5 -53t132.5 -152q33 -83 33 -279v-196q0 -226 8 -340h-168q-4 37 -4 78q0 53 4 94q-58 -96 -139 -142t-197 -46 q-105 0 -183.5 38t-121.5 107t-43 157zM266 1245v197h180v-197h-180zM286 291q0 -70 53 -113t140 -43q150 0 214.5 93.5t64.5 246.5q-40 4 -102 4q-370 0 -370 -188zM639 1245v197h180v-197h-180z" />
<glyph unicode="&#xe5;" horiz-adv-x="1093" d="M90 286q0 159 136 243.5t388 84.5q74 0 140 -4q-3 129 -63.5 189.5t-186.5 60.5q-82 0 -149 -22t-146 -72l-13 160q160 94 336 94q141 0 236.5 -53t132.5 -152q33 -83 33 -279v-196q0 -226 8 -340h-168q-4 37 -4 78q0 53 4 94q-58 -96 -139 -142t-197 -46 q-105 0 -183.5 38t-121.5 107t-43 157zM286 291q0 -70 53 -113t140 -43q150 0 214.5 93.5t64.5 246.5q-40 4 -102 4q-370 0 -370 -188zM344 1344q0 54 27 100t72 73t97 27q54 0 101 -27t74 -73t27 -100q0 -52 -27 -98t-74 -72.5t-101 -26.5q-52 0 -97 26.5t-72 72.5t-27 98z M442 1344q0 -40 30 -69.5t68 -29.5q40 0 70 29q29 30 29 70t-29.5 69t-69.5 29t-69 -30t-29 -68z" />
<glyph unicode="&#xe6;" horiz-adv-x="1777" d="M90 291q0 135 87 209t210 98t260 24q22 0 68 -2q45 -2 67 -2q-3 122 -78 184t-200 62q-154 0 -295 -98v172q157 82 331 82q122 0 214 -45t126 -123q24 53 74 90.5t120 57.5t150 20q126 0 226 -56q102 -57 156 -161q34 -69 48 -141.5t17 -202.5h-709q6 -99 50 -172.5 t120 -112.5q74 -39 174 -39q122 0 263 82v-180q-146 -53 -295 -53q-82 0 -174.5 23t-164 76t-87.5 134q-14 -68 -66 -121.5t-134.5 -82.5t-180.5 -29q-114 0 -199.5 38t-131.5 108t-46 161zM286 291q0 -68 54 -112t139 -44q84 0 154 44.5t109.5 123t39.5 172.5h-135 q-361 0 -361 -184zM962 606h504q-9 131 -74.5 204.5t-171.5 73.5q-72 0 -127 -33.5t-89 -96.5t-42 -148z" />
<glyph unicode="&#xe7;" horiz-adv-x="901" d="M82 500q0 147 64 264.5t180 184.5t260 67q116 0 225 -41l-13 -164q-88 41 -180 41q-98 0 -175.5 -44t-121 -122.5t-43.5 -177.5q0 -104 42 -187t118 -128t172 -45q110 0 209 61l17 -168q-108 -57 -242 -57q-20 0 -37 4l-78 -107q37 9 78 9q46 0 83 -18t57 -49t20 -73 q0 -79 -66.5 -127.5t-171.5 -48.5q-100 0 -188 41l37 69q67 -24 131 -24q106 0 106 78q0 32 -26.5 55t-63.5 23q-22 0 -82 -16l-33 36l119 160q-95 22 -168.5 66t-125 109t-77.5 148t-26 181z" />
<glyph unicode="&#xe8;" horiz-adv-x="1093" d="M82 512q0 152 58.5 270t166 182t246.5 64q235 0 334.5 -161t99.5 -413h-721q12 -99 57 -172.5t116.5 -112t162.5 -38.5q154 1 312 95v-177q-168 -77 -320 -77q-116 0 -211.5 38t-162.5 109t-102.5 172t-35.5 221zM270 598h533q-14 126 -75.5 204t-182.5 78 q-72 0 -129.5 -34t-95.5 -98t-50 -150zM282 1487h206l164 -283h-132z" />
<glyph unicode="&#xe9;" horiz-adv-x="1093" d="M82 512q0 152 58.5 270t166 182t246.5 64q235 0 334.5 -161t99.5 -413h-721q12 -99 57 -172.5t116.5 -112t162.5 -38.5q154 1 312 95v-177q-168 -77 -320 -77q-116 0 -211.5 38t-162.5 109t-102.5 172t-35.5 221zM270 598h533q-14 126 -75.5 204t-182.5 78 q-72 0 -129.5 -34t-95.5 -98t-50 -150zM422 1204l160 283h204l-233 -283h-131z" />
<glyph unicode="&#xea;" horiz-adv-x="1093" d="M82 512q0 152 58.5 270t166 182t246.5 64q235 0 334.5 -161t99.5 -413h-721q12 -99 57 -172.5t116.5 -112t162.5 -38.5q154 1 312 95v-177q-168 -77 -320 -77q-116 0 -211.5 38t-162.5 109t-102.5 172t-35.5 221zM238 1204l204 283h180l210 -283h-172l-132 188l-139 -188 h-151zM270 598h533q-14 126 -75.5 204t-182.5 78q-72 0 -129.5 -34t-95.5 -98t-50 -150z" />
<glyph unicode="&#xeb;" horiz-adv-x="1093" d="M82 512q0 152 58.5 270t166 182t246.5 64q235 0 334.5 -161t99.5 -413h-721q12 -99 57 -172.5t116.5 -112t162.5 -38.5q154 1 312 95v-177q-168 -77 -320 -77q-116 0 -211.5 38t-162.5 109t-102.5 172t-35.5 221zM258 1245v201h180v-201h-180zM270 598h533 q-14 126 -75.5 204t-182.5 78q-72 0 -129.5 -34t-95.5 -98t-50 -150zM631 1245v201h180v-201h-180z" />
<glyph unicode="&#xec;" horiz-adv-x="495" d="M-16 1487h204l164 -283h-131zM144 0v1004h184v-1004h-184z" />
<glyph unicode="&#xed;" horiz-adv-x="495" d="M119 1204l163 283h206l-238 -283h-131zM144 0v1004h184v-1004h-184z" />
<glyph unicode="&#xee;" horiz-adv-x="495" d="M-66 1204l210 283h180l208 -283h-172l-130 188l-140 -188h-156zM144 0v1004h184v-1004h-184z" />
<glyph unicode="&#xef;" horiz-adv-x="495" d="M-41 1245v197h181v-197h-181zM144 0v1004h184v-1004h-184zM332 1245v197h180v-197h-180z" />
<glyph unicode="&#xf0;" horiz-adv-x="1179" d="M82 496q0 154 54.5 273t153 185t226.5 66q117 0 208.5 -52t131.5 -140v176h172v-828q0 -204 -35.5 -334.5t-142 -203t-310.5 -72.5q-188 0 -380 70l20 180q186 -90 356 -90q213 0 283 151q20 39 26.5 83t7.5 112t3 92q-55 -80 -142 -124t-194 -44q-130 0 -229 62 t-154 176t-55 262zM278 500q0 -151 76.5 -247.5t198.5 -96.5q84 0 151.5 45t105.5 125t38 182q0 98 -38 179t-104 127t-145 46q-82 0 -146.5 -46t-100.5 -128t-36 -186zM278 1478h103q33 -152 197 -151q92 0 144 36q52 35 72 115h99q-9 -122 -93 -196t-218 -74 q-88 0 -155 33t-106 94t-43 143z" />
<glyph unicode="&#xf1;" horiz-adv-x="1179" d="M144 1004h172l8 -160q120 176 344 176q162 0 244 -76.5t105 -192t23 -284.5v-467h-184v450q0 180 -16 246q-44 164 -214 164q-92 0 -163 -55t-99 -149q-16 -52 -20 -103t-4 -185v-368h-184v496q-2 62 -3 136t-1 127q-2 52 -4 116q-2 65 -4 129zM250 1233q32 213 204 213 q34 0 69 -11t80 -31t69 -28t53 -8q40 0 63.5 21t35.5 69h98q-15 -98 -67.5 -155.5t-129.5 -57.5q-32 0 -61.5 8.5t-77 28.5t-83 30.5t-65.5 10.5q-36 0 -57 -20.5t-37 -69.5h-94z" />
<glyph unicode="&#xf2;" horiz-adv-x="1200" d="M82 500q0 151 65.5 271.5t183 188.5t263.5 68q110 0 205.5 -39t164 -109t105.5 -167t37 -213q0 -152 -66 -273t-184 -188t-266 -67q-144 0 -260.5 68t-182 189t-65.5 271zM278 500q0 -165 89 -271t227 -106q91 0 163 47.5t112.5 133t40.5 192.5q0 110 -40.5 198 t-112.5 137t-163 49q-90 0 -162.5 -49t-113.5 -135q-40 -86 -40 -196zM344 1487h205l159 -283h-130z" />
<glyph unicode="&#xf3;" horiz-adv-x="1200" d="M82 500q0 151 65.5 271.5t183 188.5t263.5 68q110 0 205.5 -39t164 -109t105.5 -167t37 -213q0 -152 -66 -273t-184 -188t-266 -67q-144 0 -260.5 68t-182 189t-65.5 271zM278 500q0 -165 89 -271t227 -106q91 0 163 47.5t112.5 133t40.5 192.5q0 110 -40.5 198 t-112.5 137t-163 49q-90 0 -162.5 -49t-113.5 -135q-40 -86 -40 -196zM479 1204l160 283h205l-234 -283h-131z" />
<glyph unicode="&#xf4;" horiz-adv-x="1200" d="M82 500q0 151 65.5 271.5t183 188.5t263.5 68q110 0 205.5 -39t164 -109t105.5 -167t37 -213q0 -152 -66 -273t-184 -188t-266 -67q-144 0 -260.5 68t-182 189t-65.5 271zM278 500q0 -165 89 -271t227 -106q91 0 163 47.5t112.5 133t40.5 192.5q0 110 -40.5 198 t-112.5 137t-163 49q-90 0 -162.5 -49t-113.5 -135q-40 -86 -40 -196zM295 1204l205 283h184l205 -283h-168l-135 188l-140 -188h-151z" />
<glyph unicode="&#xf5;" horiz-adv-x="1200" d="M82 500q0 151 65.5 271.5t183 188.5t263.5 68q110 0 205.5 -39t164 -109t105.5 -167t37 -213q0 -152 -66 -273t-184 -188t-266 -67q-144 0 -260.5 68t-182 189t-65.5 271zM258 1233q32 213 205 213q33 0 68 -11t80 -31t69 -28t53 -8q41 0 64 21t35 69h98 q-15 -98 -67.5 -155.5t-129.5 -57.5q-31 0 -61 8.5t-77.5 28.5t-83 30.5t-65.5 10.5q-36 0 -57 -21.5t-37 -68.5h-94zM278 500q0 -165 89 -271t227 -106q91 0 163 47.5t112.5 133t40.5 192.5q0 110 -40.5 198t-112.5 137t-163 49q-90 0 -162.5 -49t-113.5 -135 q-40 -86 -40 -196z" />
<glyph unicode="&#xf6;" horiz-adv-x="1200" d="M82 500q0 151 65.5 271.5t183 188.5t263.5 68q110 0 205.5 -39t164 -109t105.5 -167t37 -213q0 -152 -66 -273t-184 -188t-266 -67q-144 0 -260.5 68t-182 189t-65.5 271zM278 500q0 -165 89 -271t227 -106q91 0 163 47.5t112.5 133t40.5 192.5q0 110 -40.5 198 t-112.5 137t-163 49q-90 0 -162.5 -49t-113.5 -135q-40 -86 -40 -196zM320 1245v201h176v-201h-176zM692 1245v201h176v-201h-176z" />
<glyph unicode="&#xf7;" d="M78 622v152h942v-152h-942zM450 291v197h197v-197h-197zM450 910v196h197v-196h-197z" />
<glyph unicode="&#xf8;" horiz-adv-x="1200" d="M82 500q0 150 65 271t181.5 189t261.5 68q156 0 286 -78l120 148l98 -78l-123 -148q42 -47 72.5 -106t46.5 -126.5t16 -139.5q0 -152 -66 -273t-184 -188t-266 -67q-152 0 -287 86l-119 -152l-94 82l123 152q-131 150 -131 360zM278 500q0 -124 54 -218l434 542 q-76 56 -172 56q-90 0 -162.5 -49t-113.5 -135q-40 -86 -40 -196zM410 184q78 -62 184 -61q91 0 163 47.5t112.5 132.5t40.5 193q0 138 -58 233z" />
<glyph unicode="&#xf9;" horiz-adv-x="1179" d="M131 471v529h185v-464q0 -194 24 -266q56 -136 196 -135q84 0 149 45t99.5 126.5t34.5 189.5v504h185v-632q0 -130 16 -368h-172l-8 156q-126 -172 -340 -172q-142 0 -225 64.5t-113.5 171.5t-30.5 251zM328 1483h204l164 -279h-131z" />
<glyph unicode="&#xfa;" horiz-adv-x="1179" d="M131 471v529h185v-464q0 -194 24 -266q56 -136 196 -135q84 0 149 45t99.5 126.5t34.5 189.5v504h185v-632q0 -130 16 -368h-172l-8 156q-126 -172 -340 -172q-142 0 -225 64.5t-113.5 171.5t-30.5 251zM463 1204l163 279h206l-238 -279h-131z" />
<glyph unicode="&#xfb;" horiz-adv-x="1179" d="M131 471v529h185v-464q0 -194 24 -266q56 -136 196 -135q84 0 149 45t99.5 126.5t34.5 189.5v504h185v-632q0 -130 16 -368h-172l-8 156q-126 -172 -340 -172q-142 0 -225 64.5t-113.5 171.5t-30.5 251zM282 1204l206 279h180l208 -279h-172l-130 188l-140 -188h-152z " />
<glyph unicode="&#xfc;" horiz-adv-x="1179" d="M131 471v529h185v-464q0 -194 24 -266q56 -136 196 -135q84 0 149 45t99.5 126.5t34.5 189.5v504h185v-632q0 -130 16 -368h-172l-8 156q-126 -172 -340 -172q-142 0 -225 64.5t-113.5 171.5t-30.5 251zM303 1245v197h181v-197h-181zM676 1245v197h180v-197h-180z" />
<glyph unicode="&#xfd;" horiz-adv-x="495" d="M144 0v1004h184v-1004h-184z" />
<glyph unicode="&#xfe;" horiz-adv-x="794" d="M74 729q0 86 42.5 152.5t121 102.5t184.5 36q110 0 234 -41l-17 -155q-105 48 -201 48q-77 0 -122.5 -34t-45.5 -92q0 -57 44 -87.5t160 -89.5t175 -121t59 -162q0 -90 -45 -160t-127.5 -108t-191.5 -38q-140 0 -258 61v164q136 -65 234 -65q85 0 138.5 37t53.5 93 t-46 88.5t-161 92t-173 121t-58 157.5zM94 -398l33 74q70 -28 135 -28q49 0 78 20q28 22 28 58q0 34 -27 56t-71 22q-26 0 -74 -17l-32 33l118 168h86l-86 -119q40 8 74 8q72 0 118 -39t46 -100q0 -80 -66 -128t-172 -48q-100 0 -188 40z" />
<glyph unicode="&#xff;" horiz-adv-x="987" d="M12 1004h201l225 -636q40 -114 54 -204q8 54 40 160l238 680h184l-356 -992q-52 -146 -93 -231t-118 -146t-199 -61q-44 0 -114 16l12 152q46 -20 86 -20q154 0 226 237zM209 1245v201h176v-201h-176zM582 1245v201h176v-201h-176z" />
<glyph unicode="&#x152;" horiz-adv-x="1863" d="M98 696q0 101 26.5 194.5t78 172.5t124.5 140t165 99q130 50 336 62h204q74 4 230 4h450v-168h-548v-406h507v-168h-507v-458h564v-168h-655q-70 4 -213 4q-157 0 -295 45.5t-243.5 135t-164.5 219.5t-59 292zM307 696q0 -120 37.5 -216.5t110.5 -165t175 -104.5t230 -38 q74 0 111 -4v1032h-111q-176 -2 -300 -61t-188 -171q-65 -114 -65 -272z" />
<glyph unicode="&#x153;" horiz-adv-x="987" d="M90 1020q0 108 53.5 193t151 132t225.5 47q153 0 299 -48l-25 -172q-138 52 -258 52q-110 0 -177.5 -51t-67.5 -137q0 -90 63.5 -137.5t219.5 -128t235.5 -163.5t79.5 -222q0 -121 -58 -215.5t-164 -146t-245 -51.5q-158 0 -312 56l21 185q147 -73 271 -73q82 0 146 28 t98 81t34 123q0 102 -69 155t-218 125t-226 150t-77 218zM200 -406l34 74q68 -28 134 -28q50 0 78 20q29 22 29 58q0 34 -27.5 55.5t-70.5 21.5q-24 0 -74 -16l-33 33l119 168h86l-86 -120q41 8 74 9q71 0 117 -39.5t46 -99.5q0 -52 -30 -92.5t-83.5 -62t-123.5 -21.5 q-101 0 -189 40z" />
<glyph unicode="&#x178;" horiz-adv-x="1179" d="M82 496q0 154 54.5 273t153 185t226.5 66q117 0 208.5 -52t131.5 -140v176h172v-828q0 -204 -35.5 -334.5t-142 -203t-310.5 -72.5q-188 0 -380 70l20 180q186 -90 356 -90q213 0 283 151q20 39 26.5 83t7.5 112t3 92q-55 -80 -142 -124t-194 -44q-130 0 -229 62 t-154 176t-55 262zM278 500q0 -151 76.5 -247.5t198.5 -96.5q84 0 151.5 45t105.5 125t38 182q0 98 -38 179t-104 127t-145 46q-82 0 -146.5 -46t-100.5 -128t-36 -186zM278 1478h103q33 -152 197 -151q92 0 144 36q52 35 72 115h99q-9 -122 -93 -196t-218 -74 q-88 0 -155 33t-106 94t-43 143z" />
<glyph unicode="&#x2dc;" horiz-adv-x="577" />
<glyph unicode="&#x2000;" horiz-adv-x="924" />
<glyph unicode="&#x2001;" horiz-adv-x="1848" />
<glyph unicode="&#x2002;" horiz-adv-x="924" />
<glyph unicode="&#x2003;" horiz-adv-x="1848" />
<glyph unicode="&#x2004;" horiz-adv-x="616" />
<glyph unicode="&#x2005;" horiz-adv-x="462" />
<glyph unicode="&#x2006;" horiz-adv-x="308" />
<glyph unicode="&#x2007;" horiz-adv-x="308" />
<glyph unicode="&#x2008;" horiz-adv-x="231" />
<glyph unicode="&#x2009;" horiz-adv-x="369" />
<glyph unicode="&#x200a;" horiz-adv-x="102" />
<glyph unicode="&#x2010;" horiz-adv-x="536" d="M0 430v152h516v-152h-516z" />
<glyph unicode="&#x2011;" horiz-adv-x="536" d="M0 430v152h516v-152h-516z" />
<glyph unicode="&#x2012;" horiz-adv-x="536" d="M0 430v152h516v-152h-516z" />
<glyph unicode="&#x2013;" d="M86 430v152h926v-152h-926z" />
<glyph unicode="&#x2014;" horiz-adv-x="1478" d="M0 430v152h1458v-152h-1458z" />
<glyph unicode="&#x2018;" horiz-adv-x="577" d="M123 996l172 478h172l-123 -478h-221z" />
<glyph unicode="&#x2019;" horiz-adv-x="577" d="M94 996l123 478h221l-172 -478h-172z" />
<glyph unicode="&#x201a;" horiz-adv-x="577" d="M94 -262l123 483h221l-172 -483h-172z" />
<glyph unicode="&#x201c;" horiz-adv-x="942" d="M123 996l172 478h172l-123 -478h-221zM496 996l172 478h172l-123 -478h-221z" />
<glyph unicode="&#x201d;" horiz-adv-x="942" d="M94 996l123 478h221l-172 -478h-172zM467 996l123 478h221l-172 -478h-172z" />
<glyph unicode="&#x201e;" d="M70 -258l32 156q50 -8 54 -8q60 0 95 32t53.5 80t28 104t19.5 115l119 635h-217l24 140h218q12 63 35 172t60 186.5t104 125.5t173 48q68 0 152 -20l-29 -152q-60 12 -90 12q-136 0 -172 -168q-8 -50 -17.5 -94t-23.5 -110h246l-24 -140h-246l-124 -647 q-32 -174 -59 -261.5t-101 -150.5t-216 -63q-62 0 -94 8z" />
<glyph unicode="&#x2026;" horiz-adv-x="1646" d="M164 0v221h221v-221h-221zM712 0v221h222v-221h-222zM1262 0v221h216v-221h-216z" />
<glyph unicode="&#x202f;" horiz-adv-x="369" />
<glyph unicode="&#x2039;" horiz-adv-x="708" d="M110 508l275 397h180l-253 -397l258 -406h-177z" />
<glyph unicode="&#x203a;" horiz-adv-x="495" d="M144 0v1004h184v-1004h-184z" />
<glyph unicode="&#x205f;" horiz-adv-x="462" />
<glyph unicode="&#x2122;" horiz-adv-x="1777" d="M0 1262v106h652v-106h-254v-672h-136v672h-262zM750 590v778h204l164 -389q60 -135 90 -229q56 152 90 233l160 385h209v-778h-131v672q-50 -156 -110 -296l-156 -376h-127l-156 376q-18 48 -55 137q-38 89 -60 147q8 -148 8 -226v-434h-130z" />
<glyph unicode="&#xe000;" horiz-adv-x="1002" d="M0 0v1002h1002v-1002h-1002z" />
</font>
</defs>
</svg>
